<svg id="visual" viewBox="0 0 1300 600" xmlns="http://www.w3.org/2000/svg" xmlns:xlink="http://www.w3.org/1999/xlink" version="1.1" preserveAspectRatio="none"><rect x="0" y="0" width="1300" height="500" fill="#ebd1d9"></rect><path d="M0 158L21.7 148.3C43.3 138.7 86.7 119.3 130 116.7C173.3 114 216.7 128 260 135.5C303.3 143 346.7 144 390 147.3C433.3 150.7 476.7 156.3 520 169C563.3 181.7 606.7 201.3 650 204.2C693.3 207 736.7 193 780 174.2C823.3 155.3 866.7 131.7 910 132.7C953.3 133.7 996.7 159.3 1040 172.8C1083.3 186.3 1126.7 187.7 1170 196C1213.3 204.3 1256.7 219.7 1278.3 227.3L1300 235L1300 501L1278.3 501C1256.7 501 1213.3 501 1170 501C1126.7 501 1083.3 501 1040 501C996.7 501 953.3 501 910 501C866.7 501 823.3 501 780 501C736.7 501 693.3 501 650 501C606.7 501 563.3 501 520 501C476.7 501 433.3 501 390 501C346.7 501 303.3 501 260 501C216.7 501 173.3 501 130 501C86.7 501 43.3 501 21.7 501L0 501Z" fill="#fab7a5"></path><path d="M0 195L21.7 202.7C43.3 210.3 86.7 225.7 130 238C173.3 250.3 216.7 259.7 260 249.7C303.3 239.7 346.7 210.3 390 211.8C433.3 213.3 476.7 245.7 520 262.8C563.3 280 606.7 282 650 283.3C693.3 284.7 736.7 285.3 780 274.8C823.3 264.3 866.7 242.7 910 223.3C953.3 204 996.7 187 1040 192.7C1083.3 198.3 1126.7 226.7 1170 241.8C1213.3 257 1256.7 259 1278.3 260L1300 261L1300 501L1278.3 501C1256.7 501 1213.3 501 1170 501C1126.7 501 1083.3 501 1040 501C996.7 501 953.3 501 910 501C866.7 501 823.3 501 780 501C736.7 501 693.3 501 650 501C606.7 501 563.3 501 520 501C476.7 501 433.3 501 390 501C346.7 501 303.3 501 260 501C216.7 501 173.3 501 130 501C86.7 501 43.3 501 21.7 501L0 501Z" fill="#fac9b2"></path><path d="M0 271L21.7 265.5C43.3 260 86.7 249 130 262.7C173.3 276.3 216.7 314.7 260 318C303.3 321.3 346.7 289.7 390 284.5C433.3 279.3 476.7 300.7 520 312.8C563.3 325 606.7 328 650 333.2C693.3 338.3 736.7 345.7 780 334.5C823.3 323.3 866.7 293.7 910 282.3C953.3 271 996.7 278 1040 291.5C1083.3 305 1126.7 325 1170 323.3C1213.3 321.7 1256.7 298.3 1278.3 286.7L1300 275L1300 501L1278.3 501C1256.7 501 1213.3 501 1170 501C1126.7 501 1083.3 501 1040 501C996.7 501 953.3 501 910 501C866.7 501 823.3 501 780 501C736.7 501 693.3 501 650 501C606.7 501 563.3 501 520 501C476.7 501 433.3 501 390 501C346.7 501 303.3 501 260 501C216.7 501 173.3 501 130 501C86.7 501 43.3 501 21.7 501L0 501Z" fill="#fadbc3"></path><path d="M0 379L21.7 379.3C43.3 379.7 86.7 380.3 130 377.5C173.3 374.7 216.7 368.3 260 362.3C303.3 356.3 346.7 350.7 390 343.3C433.3 336 476.7 327 520 336C563.3 345 606.7 372 650 375.5C693.3 379 736.7 359 780 348C823.3 337 866.7 335 910 337.5C953.3 340 996.7 347 1040 346.2C1083.3 345.3 1126.7 336.7 1170 343.7C1213.3 350.7 1256.7 373.3 1278.3 384.7L1300 396L1300 501L1278.3 501C1256.7 501 1213.3 501 1170 501C1126.7 501 1083.3 501 1040 501C996.7 501 953.3 501 910 501C866.7 501 823.3 501 780 501C736.7 501 693.3 501 650 501C606.7 501 563.3 501 520 501C476.7 501 433.3 501 390 501C346.7 501 303.3 501 260 501C216.7 501 173.3 501 130 501C86.7 501 43.3 501 21.7 501L0 501Z" fill="#fbebd8"></path><path d="M0 389L21.7 396.3C43.3 403.7 86.7 418.3 130 417.8C173.3 417.3 216.7 401.7 260 395.7C303.3 389.7 346.7 393.3 390 393.5C433.3 393.7 476.7 390.3 520 400.8C563.3 411.3 606.7 435.7 650 440.5C693.3 445.3 736.7 430.7 780 423.8C823.3 417 866.7 418 910 423.3C953.3 428.7 996.7 438.3 1040 442.7C1083.3 447 1126.7 446 1170 437.7C1213.3 429.3 1256.7 413.7 1278.3 405.8L1300 398L1300 501L1278.3 501C1256.7 501 1213.3 501 1170 501C1126.7 501 1083.3 501 1040 501C996.7 501 953.3 501 910 501C866.7 501 823.3 501 780 501C736.7 501 693.3 501 650 501C606.7 501 563.3 501 520 501C476.7 501 433.3 501 390 501C346.7 501 303.3 501 260 501C216.7 501 173.3 501 130 501C86.7 501 43.3 501 21.7 501L0 501Z" fill="#fffaf0"></path></svg>